<?xml version="1.0" encoding="UTF-8" standalone="no"?>
<svg
  xmlns:dc="http://purl.org/dc/elements/1.1/"
  xmlns:cc="http://creativecommons.org/ns#"
  xmlns:rdf="http://www.w3.org/1999/02/22-rdf-syntax-ns#"
  xmlns="http://www.w3.org/2000/svg"
  xmlns:sodipodi="http://sodipodi.sourceforge.net/DTD/sodipodi-0.dtd"
  xmlns:inkscape="http://www.inkscape.org/namespaces/inkscape"
  width="7.11111in"
  height="7.11111in"
  viewBox="0 0 512 512"
  version="1.1"
  id="svg3798"
  sodipodi:docname="iot_coap_logo.svg"
  inkscape:version="0.92.2 (5c3e80d, 2017-08-06)">
  <metadata
     id="metadata3804">
    <rdf:RDF>
      <cc:Work
         rdf:about="">
        <dc:format>image/svg+xml</dc:format>
        <dc:type
           rdf:resource="http://purl.org/dc/dcmitype/StillImage" />
        <dc:title />
      </cc:Work>
    </rdf:RDF>
  </metadata>
  <defs
     id="defs3802" />
  <sodipodi:namedview
     pagecolor="#ffffff"
     bordercolor="#666666"
     borderopacity="1"
     objecttolerance="10"
     gridtolerance="10"
     guidetolerance="10"
     inkscape:pageopacity="0"
     inkscape:pageshadow="2"
     inkscape:window-width="1920"
     inkscape:window-height="1016"
     id="namedview3800"
     showgrid="false"
     inkscape:snap-global="true"
     inkscape:zoom="9.6445328"
     inkscape:cx="284.04977"
     inkscape:cy="227.00177"
     inkscape:window-x="0"
     inkscape:window-y="27"
     inkscape:window-maximized="1"
     inkscape:current-layer="g6292" />
  <g
     id="g6292"
     transform="translate(0.62211417,-31.727825)">
    <path
       sodipodi:nodetypes="scccccccccccccccs"
       inkscape:connector-curvature="0"
       d="m 193.42988,144.79887 c -27.04805,-0.18822 -53.90478,12.41079 -69.76759,35.23829 -11.29,16.25 -15.25956,32.4805 -15.03956,52.0005 0.06,4.47 0.68951,8.72049 1.99952,13.00048 -27.460004,4.24001 -50.67001,30.04904 -51.00001,57.99904 -0.14,12.58 0.719416,22.63049 6.899416,34.00049 13.63,25.05001 36.940104,33.96049 64.100104,34.00049 h 248.00101 c 13.92,-0.02 27.80903,-2.16997 39.99904,-9.22998 35.39999,-20.52 41.81113,-70.78116 12.91113,-99.68116 -10.67001,-10.68001 -26.73065,-18.01936 -41.91065,-18.08936 h -9 c 0,-12.77 -0.92055,-22.1205 -6.31055,-34.00049 -11.62,-25.58001 -39.43897,-43.14899 -67.68898,-41.959 -19.64,0.82001 -27.89098,6.91948 -44.00098,15.95948 -5.41,-13.91 -24.44952,-27.36975 -37.99952,-32.98975 -9.99562,-4.14282 -20.60836,-6.17537 -31.19238,-6.24903 z"
       style="fill:#000050;fill-opacity:1;stroke:#000000;stroke-width:0.75000012;stroke-miterlimit:4;stroke-dasharray:none"
       id="Selection" />
    <path
       sodipodi:nodetypes="ccccccccccccccccccccccccccccccccccccccccccccccccscccccscccccccccccccccccccccccccscccccccscccccccccccccccccccccccccccsccccccccccscccscccccccccccccscsccccccccscs"
       d="m 152.77954,238.89754 c 0.60301,0.57422 1.62084,1.15369 0.93955,1.96205 l -3.53701,3.40093 c -2.29249,2.34272 -4.41882,4.81884 -6.3281,7.45586 -4.47103,6.17789 -7.52588,13.32113 -9.06843,20.66711 -0.49175,2.3401 -0.80217,4.68673 -0.97387,7.06345 l -0.125,1.56965 v 4.70896 l 0.125,1.56966 0.77882,6.14781 c 1.54666,8.16743 4.73064,15.40354 9.67555,22.23677 2.00543,2.77043 4.3378,5.26226 6.74019,7.71746 l 2.04803,1.96207 c 0.239,0.22759 0.83789,0.74951 0.9148,1.04643 0.13324,0.50753 -0.96975,1.36037 -1.32688,1.70046 l -4.94491,4.57816 -6.28005,-6.14781 c -3.33369,-3.61414 -6.38443,-7.8025 -8.78684,-12.03402 -10.57249,-18.61609 -10.88431,-41.51865 -0.95325,-60.43169 2.56036,-4.87636 5.83223,-9.50163 9.60275,-13.60366 l 6.41739,-6.27862 z m 86.9481,-3.40092 3.31996,3.27012 c 4.97376,5.23741 8.09317,9.37606 11.41177,15.69654 3.13589,5.97384 5.3199,12.7482 6.32124,19.35906 l 0.6497,6.14781 v 7.06345 l -0.12499,1.30803 -0.91618,6.93265 c -1.47386,7.78418 -4.43257,15.19817 -8.71129,21.97516 -2.29938,3.6429 -4.99574,7.05168 -7.99015,10.20275 l -1.33788,1.30803 -2.75954,2.74691 c -0.25823,0.2459 -0.91069,0.92479 -1.23623,1.00196 -0.51372,0.12295 -1.30766,-0.80838 -1.64831,-1.13277 l -3.84605,-3.66251 c -0.45191,-0.43165 -1.22385,-0.92218 -0.77333,-1.56966 l 4.05759,-3.92412 c 2.60569,-2.6632 4.96276,-5.55921 7.01078,-8.63311 5.34189,-8.0157 8.95579,-18.46176 9.07254,-27.99217 l 0.13737,-1.96208 -0.13737,-3.40091 -0.12499,-1.30805 c -0.24999,-3.40876 -0.86948,-6.7652 -1.78154,-10.07193 -2.02467,-7.33554 -5.78418,-14.46569 -10.73046,-20.40552 -1.7472,-2.0981 -3.6455,-3.99476 -5.63171,-5.8862 l -1.50821,-1.43886 c -0.19778,-0.1975 -0.52471,-0.49181 -0.52471,-0.78481 0,-0.41335 1.02607,-1.26488 1.34613,-1.56965 l 3.02188,-2.8777 c 0.55768,-0.53109 1.09063,-1.16546 1.78567,-1.52519 0.70328,0.0288 1.17029,0.67757 1.64831,1.13277 z m -74.31108,15.43493 c 0.33651,0.32048 1.48346,1.27927 1.48346,1.70046 0,0.32571 -0.43541,0.69719 -0.65931,0.91563 l -1.92303,1.83126 c -2.31862,2.21845 -4.4147,4.68019 -6.17428,7.32506 -3.21006,4.8267 -5.22374,10.42643 -5.93389,16.08895 l -0.25412,2.74691 v 3.92412 c 0.0178,1.38 0.36537,3.58535 0.6291,4.97057 1.20053,6.32962 3.89137,11.91237 8.00939,17.0046 1.26783,1.56964 2.67026,2.92086 4.13588,4.31655 0.74723,0.71157 1.88595,1.70437 2.47246,2.48529 l -4.12077,3.92412 -2.47246,2.22368 c -5.42841,-5.16939 -8.88848,-8.57032 -12.46393,-15.17332 -7.41463,-13.69263 -7.1042,-30.46307 0.27472,-44.08113 1.96424,-3.6259 4.75124,-7.35122 7.66875,-10.33354 l 4.52046,-4.31657 z m 62.71112,52.71422 c 6.73058,-10.62786 7.81298,-23.71878 2.80763,-35.18641 -1.87908,-4.30478 -4.7224,-8.53237 -8.10828,-11.90321 l -3.01642,-2.87771 c -0.28706,-0.27599 -0.89145,-0.74296 -0.77745,-1.17723 0.0729,-0.27731 0.56043,-0.70766 0.77745,-0.91563 l 1.92302,-1.83127 2.47247,-2.35449 c 0.24999,-0.23544 0.72938,-0.75866 1.09887,-0.75866 0.36949,0 0.84888,0.52322 1.09887,0.75866 l 2.68948,2.61611 2.3557,2.48528 c 2.37494,2.67495 4.49439,5.64944 6.18253,8.7639 7.0671,13.04251 7.53001,28.76653 1.09199,42.11905 -2.31999,4.81099 -5.63858,9.59452 -9.57253,13.34208 l -2.60983,2.48526 c -0.26921,0.25506 -0.84612,0.88948 -1.23621,0.88948 -0.4423,0 -1.44914,-1.09224 -1.78566,-1.41269 l -4.67021,-4.57816 c 3.63589,-3.4624 6.58361,-6.21059 9.27858,-10.46436 z m -51.31035,-41.85744 3.2966,3.2701 c -2.48757,2.36888 -4.83364,4.29563 -6.66876,7.19425 -4.3007,6.78877 -4.27324,14.94181 -0.29395,21.84436 0.73351,1.27142 2.07275,3.01112 3.12215,4.05493 0.978,0.9732 3.13316,2.85286 3.84056,3.79335 l -4.80755,4.57815 c -0.39697,0.37802 -1.31452,1.48593 -1.92301,1.2858 -0.33516,-0.10987 -1.09063,-0.88554 -1.37359,-1.15499 l -2.75817,-2.7469 c -4.13312,-4.27732 -6.83359,-9.70833 -7.82945,-15.43495 -0.1772,-1.01503 -0.39971,-2.52189 -0.40108,-3.5317 v -3.00849 c 0.009,-5.06739 2.38453,-11.40878 5.36112,-15.56575 2.1936,-3.06344 4.42568,-5.00328 7.13851,-7.58667 z m 38.73517,0 c 5.77868,5.50294 8.79508,12.02486 9.35276,19.75149 l 0.12499,1.30804 v 1.04643 l -0.12499,1.30804 c -0.29258,4.0654 -1.2376,7.96208 -3.13865,11.6416 -1.76232,3.41268 -3.80897,5.9503 -6.62619,8.6331 l -1.78567,1.70046 c -0.22938,0.21321 -0.61949,0.62786 -0.9615,0.62786 -0.42169,0 -1.20739,-0.86201 -1.51094,-1.15107 l -3.57134,-3.40093 c -0.34065,-0.3244 -1.31864,-1.08044 -1.18953,-1.56965 0.0892,-0.344 1.15382,-1.27404 1.46425,-1.56965 1.25546,-1.19556 2.5068,-2.31264 3.58781,-3.66254 2.69223,-3.36297 4.21966,-7.3041 4.52871,-11.51078 l 0.12501,-1.70046 -0.12501,-1.30803 c -0.30631,-4.16615 -1.78565,-8.01049 -4.39135,-11.38001 -1.27881,-1.65337 -2.36257,-2.62655 -3.86254,-4.05494 -0.32003,-0.30477 -1.34611,-1.15632 -1.34611,-1.56964 0,-0.42119 1.14695,-1.38 1.48348,-1.70047 l 4.6702,-4.44736 c 0.85987,0.58601 2.46558,2.21713 3.29661,3.00851 z m -27.19705,35.0556 c 0,-0.29693 0.0303,-0.74036 -0.1401,-0.99543 -0.22664,-0.33746 -1.58374,-0.83583 -2.05763,-1.09873 -1.30765,-0.7273 -2.09473,-1.31853 -3.15786,-2.35319 -2.16754,-2.11381 -3.70457,-5.39439 -3.71008,-8.37149 v -1.43884 c 0.0138,-1.10531 0.3173,-2.35579 0.6868,-3.40093 1.85298,-5.22825 6.98606,-8.76782 12.77437,-8.89339 0.69502,-0.0143 0.86674,0.0419 1.51094,0.10857 6.57949,0.66972 11.62605,5.20995 12.36916,11.53174 0.0907,0.77172 0.16209,1.0085 0.12499,1.83125 -0.16621,3.64552 -1.64281,6.65925 -4.40233,9.17724 -0.81043,0.74036 -1.6181,1.30675 -2.59746,1.82865 -0.43819,0.23282 -1.84886,0.77172 -2.05764,1.07912 -0.17032,0.25246 -0.14012,0.69981 -0.14012,0.99543 v 56.11514 h 6.18116 c 4.13174,0 7.37067,-0.0366 10.20988,3.40091 0.52333,0.6331 0.94914,1.34598 1.26644,2.09288 0.40658,0.9601 0.60987,1.97645 0.61125,3.0085 v 9.02551 h -45.74046 v -8.8947 c 0.011,-0.90648 0.30081,-2.30477 0.66892,-3.13931 0.32555,-0.73512 0.74175,-1.4637 1.25684,-2.09288 2.8186,-3.44146 6.17702,-3.40091 10.29917,-3.40091 h 6.04376 z"
       id="Selection-3"
       style="fill:#ffffff;fill-opacity:1;stroke:#000000;stroke-width:0.60691583;stroke-miterlimit:4;stroke-dasharray:none"
       inkscape:connector-curvature="0" />
    <rect
       y="365.53546"
       x="170.39243"
       height="5.9414315"
       width="45.099964"
       id="rect6255"
       style="fill:#ffffff;fill-opacity:1;stroke-width:0.49223268;stroke-miterlimit:4;stroke-dasharray:none" />
    <text
       transform="scale(0.96428779,1.0370348)"
       id="text6259"
       y="343.28192"
       x="343.4938"
       style="font-style:normal;font-variant:normal;font-weight:normal;font-stretch:normal;font-size:56.23300934px;line-height:1.25;font-family:NanumGothic;-inkscape-font-specification:'NanumGothic, Normal';font-variant-ligatures:normal;font-variant-caps:normal;font-variant-numeric:normal;font-feature-settings:normal;text-align:center;letter-spacing:0px;word-spacing:0px;writing-mode:lr-tb;text-anchor:middle;fill:#f5f5f5;fill-opacity:1;stroke:none;stroke-width:1.40581894"
       xml:space="preserve"><tspan
         style="font-style:normal;font-variant:normal;font-weight:normal;font-stretch:normal;font-size:56.23300934px;font-family:NanumGothic;-inkscape-font-specification:'NanumGothic, Normal';font-variant-ligatures:normal;font-variant-caps:normal;font-variant-numeric:normal;font-feature-settings:normal;text-align:center;writing-mode:lr-tb;text-anchor:middle;fill:#f5f5f5;fill-opacity:1;stroke-width:1.40581894"
         y="343.28192"
         x="343.4938"
         id="tspan6257"
         sodipodi:role="line">CoAP</tspan></text>
  </g>
</svg>
